<?xml version="1.0" encoding="utf-8"?>
<!-- Generator: Adobe Illustrator 23.0.1, SVG Export Plug-In . SVG Version: 6.00 Build 0)  -->
<svg version="1.1" id="Layer_1" xmlns="http://www.w3.org/2000/svg" xmlns:xlink="http://www.w3.org/1999/xlink" x="0px" y="0px"
	 viewBox="0 0 307.5 83.9" style="enable-background:new 0 0 307.5 83.9;" xml:space="preserve">
<g>
	<path d="M81.8,35.4c-1.8,1.9-4.4,2.9-7.8,2.9h-7.2V18.8H74c3.7,0,6,0.8,7.9,2.9c1.7,1.8,2.6,4.3,2.6,6.8
		C84.5,31,83.5,33.5,81.8,35.4z M78.3,23.2c-1-0.8-2.5-1.1-4.6-1.1h-2.9v12.9h2.9c4.4,0,6.9-2.3,6.9-6.5
		C80.5,26.3,79.6,24.2,78.3,23.2z"/>
	<path d="M87.8,38.2V18.8h3.7v19.4H87.8z"/>
	<path d="M110.7,37.9c-2.1,0.5-3.3,0.6-4.9,0.6c-6.4,0-10.9-4.1-10.9-10.1c0-2.9,1.1-5.5,3.2-7.4c2-1.8,4.2-2.6,7.6-2.6
		c1.4,0,2.8,0.1,4.1,0.4c0.9,0.2,1.5,0.4,2.9,1l-0.9,3.1c-0.7-0.3-1.2-0.4-1.6-0.6c-1.4-0.5-2.8-0.7-4-0.7c-4.4,0-7.4,2.7-7.4,6.5
		c0,4,3.3,7,7.6,7c0.9,0,1.4-0.1,2.5-0.4v-5.4h3.7v7.9C111.8,37.7,111.2,37.9,110.7,37.9z"/>
	<path d="M117.1,38.2V18.8h3.7v19.4H117.1z"/>
	<path d="M133.6,21.9v16.3h-3.7V21.9H124v-3.1h15.3v3.1H133.6z"/>
	<path d="M151.7,38.2l-1.5-4.8h-6.5l-1.6,4.8h-3.9l7-19.4h3.3l7,19.4H151.7z M146.9,23.2l-2.2,7h4.5L146.9,23.2z"/>
	<path d="M158.3,38.2V18.8h3.7v16.3h7.9v3.1H158.3z"/>
	<path d="M195.9,38.2v-8.3h-10v8.3h-3.7V18.8h3.7v7.8h10v-7.8h3.7v19.4H195.9z"/>
	<path d="M215.8,38.2l-1.5-4.8h-6.5l-1.6,4.8h-3.9l7-19.4h3.3l7,19.4H215.8z M211.1,23.2l-2.2,7h4.5L211.1,23.2z"/>
	<path d="M232.1,38.2l-4.4-7.8h-1.9v7.8h-3.7V18.8h6.5c2.8,0,4.1,0.4,5.3,1.4c1.1,1,1.6,2.4,1.6,4.2c0,1.5-0.4,2.7-1.1,3.6
		c-0.7,0.9-1.4,1.4-3,1.8l4.8,8.3H232.1z M228.2,21.9h-2.4v5.4h2.4c2.4,0,3.4-0.8,3.4-2.8C231.6,22.7,230.7,21.9,228.2,21.9z"/>
	<path d="M247.8,38.2h-7.9V18.8h7c2.5,0,3.8,0.3,4.9,1.3c0.9,0.8,1.5,2.2,1.5,3.5c0,1.1-0.4,2.2-1.1,3.1c-0.9,1-1.6,1.3-3.2,1.4
		c2.9,0.1,4.8,2,4.8,5C253.8,36.4,251.6,38.2,247.8,38.2z M246.1,21.7h-2.4v5h2.2c2.1,0,3.2-0.9,3.2-2.5
		C249.1,22.7,248,21.7,246.1,21.7z M246.1,29.9h-2.4v5.4h2.4c1.1,0,1.7-0.1,2.2-0.4c0.8-0.4,1.3-1.3,1.3-2.3
		C249.7,30.9,248.4,29.9,246.1,29.9z"/>
	<path d="M266.2,38.6c-6.1,0-10.3-4.2-10.3-10.1c0-6,4.2-10.1,10.3-10.1c6.1,0,10.3,4.1,10.3,10.1C276.5,34.4,272.2,38.6,266.2,38.6
		z M266.2,21.7c-3.7,0-6.4,2.9-6.4,6.8c0,3.9,2.7,6.8,6.4,6.8c3.6,0,6.3-2.9,6.3-6.8C272.6,24.6,269.9,21.7,266.2,21.7z"/>
	<path d="M289.3,38.2l-4.4-7.8H283v7.8h-3.7V18.8h6.5c2.8,0,4.1,0.4,5.3,1.4c1.1,1,1.6,2.4,1.6,4.2c0,1.5-0.4,2.7-1.1,3.6
		c-0.7,0.9-1.4,1.4-3,1.8l4.8,8.3H289.3z M285.4,21.9H283v5.4h2.4c2.4,0,3.4-0.8,3.4-2.8C288.8,22.7,287.9,21.9,285.4,21.9z"/>
	<path d="M13.7,18.4v47.1h47V18.4H13.7z M38.3,56.2L38.3,56.2L23.9,43.1v-2.6l0,0l12.5,9.7V34.3c0-0.3,0-0.5,0-0.8l-1.6,0
		c0.1,1.5-0.2,2.8-1,3.8c-0.7,0.9-1.7,1.4-2.9,1.4c-0.3,0-0.7,0-1-0.1c-1.5-0.4-2.5-1.4-2.8-2.6c-0.3-1.5,0.2-2.5,0.7-3
		c1.2-1.4,3.5-1.4,3.8-1.4l0.1,0c0.2,0.7,0.3,1.3,0.4,1.9l-0.3,0c0,0,0,0,0,0l-0.3,0c0,0-0.1,0-0.1,0c0,0-0.1,0-0.1,0
		c-0.1,0-0.3,0-0.4,0c-1.4,0-2.1,0.7-2,1.6c0,0.2,0,0.4,0.1,0.5c0,0.1,0.1,0.2,0.2,0.4c0.3,0.4,0.8,0.7,1.5,0.8c0,0,0,0,0.1,0
		c0.5,0,1.1-0.1,1.5-0.6c0.1-0.2,0.2-0.4,0.3-0.6c0.1-0.2,0.2-0.5,0.2-0.7c0.2-0.7,0.1-1.8-0.2-3.2h0c-0.2-0.8-0.4-1.6-0.7-2.5
		l1.8-0.7c0.4,1.1,0.7,2.2,0.9,3.2l1.8,0c0-1.6,0.1-3,0.2-4.4l2.1-0.8c-0.3,1.8-0.4,4.1-0.3,6.9c0,0.1,0,0.3,0,0.4h6.8v1.9h-6.8
		V56.2z M50.7,43.1l-9.7,9.3l-0.8-3.8l10.5-8.2V43.1z"/>
	<g>
		<path d="M69.6,48.3v5.1h7v3.2h-7V65h-3.8V45.1h12.3v3.2H69.6z"/>
		<path d="M95,65.4c-6.2,0-10.5-4.3-10.6-10.3c0-6.1,4.3-10.3,10.6-10.3c6.3,0,10.5,4.2,10.5,10.3C105.6,61.1,101.2,65.4,95,65.4z
			 M95,48c-3.8,0-6.5,3-6.5,7c0,4,2.8,7,6.5,7c3.7,0,6.5-3,6.5-7C101.6,51,98.8,48,95,48z"/>
		<path d="M127.4,63.9c-1.4,1-3.1,1.4-5.6,1.4c-2.5,0-4.1-0.4-5.6-1.4c-2-1.4-2.7-3.1-2.7-6.7V45.1h3.8v12.3c0,3,1.5,4.4,4.7,4.4
			c2.9,0,4.4-1.6,4.4-4.4V45.1h3.8v12.1C130.2,60.9,129.5,62.5,127.4,63.9z"/>
		<path d="M153.1,65.2l-8.5-12.9c-0.1-0.1-0.2-0.4-0.4-0.8c-0.2-0.2-0.2-0.4-0.2-0.4c-0.1-0.2-0.2-0.4-0.3-0.7V65H140V45.1h4.4
			l8.3,13.1c0,0.1,0.1,0.2,0.2,0.4c0.1,0.2,0.2,0.3,0.2,0.4l0.2,0.5l0.2,0.4V45.1h3.6v20.1H153.1z"/>
		<path d="M182.6,62.1c-1.8,2-4.5,2.9-8,2.9h-7.4V45.1h7.4c3.8,0,6.1,0.8,8.1,2.9c1.7,1.8,2.7,4.4,2.7,7
			C185.4,57.6,184.4,60.2,182.6,62.1z M179,49.6c-1.1-0.8-2.6-1.2-4.8-1.2h-3v13.2h3c4.5,0,7.1-2.4,7.1-6.6
			C181.3,52.8,180.4,50.7,179,49.6z"/>
		<path d="M204.7,65l-1.6-4.9h-6.7l-1.6,4.9h-4l7.2-19.9h3.4l7.2,19.9H204.7z M199.8,49.6l-2.3,7.2h4.6L199.8,49.6z"/>
		<path d="M221.4,48.3V65h-3.8V48.3h-6v-3.2h15.7v3.2H221.4z"/>
		<path d="M235,65V45.1h3.8V65H235z"/>
		<path d="M257.6,65.4c-6.2,0-10.5-4.3-10.6-10.3c0-6.1,4.3-10.3,10.6-10.3c6.3,0,10.5,4.2,10.5,10.3
			C268.2,61.1,263.8,65.4,257.6,65.4z M257.6,48c-3.8,0-6.5,3-6.5,7c0,4,2.8,7,6.5,7c3.7,0,6.5-3,6.5-7C264.2,51,261.4,48,257.6,48z
			"/>
		<path d="M289.8,65.2l-8.5-12.9c-0.1-0.1-0.2-0.4-0.4-0.8c-0.2-0.2-0.2-0.4-0.2-0.4c-0.1-0.2-0.2-0.4-0.3-0.7V65h-3.6V45.1h4.4
			l8.3,13.1c0,0.1,0.1,0.2,0.2,0.4c0.1,0.2,0.2,0.3,0.2,0.4l0.2,0.5l0.2,0.4V45.1h3.6v20.1H289.8z"/>
	</g>
</g>
</svg>
