<svg width="308" height="84" viewBox="0 0 308 84" fill="none" xmlns="http://www.w3.org/2000/svg">
<path d="M81.8003 35.3998C80.0003 37.2998 77.4003 38.2998 74.0003 38.2998H66.8003V18.7998H74.0003C77.7003 18.7998 80.0003 19.5998 81.9003 21.6998C83.6003 23.4998 84.5003 25.9998 84.5003 28.4998C84.5003 30.9998 83.5003 33.4998 81.8003 35.3998ZM78.3003 23.1998C77.3003 22.3998 75.8003 22.0998 73.7003 22.0998H70.8003V34.9998H73.7003C78.1003 34.9998 80.6003 32.6998 80.6003 28.4998C80.5003 26.2998 79.6003 24.1998 78.3003 23.1998Z" fill="white"/>
<path d="M87.8003 38.1998V18.7998H91.5003V38.1998H87.8003Z" fill="white"/>
<path d="M110.7 37.8999C108.6 38.3999 107.4 38.4999 105.8 38.4999C99.4004 38.4999 94.9004 34.3999 94.9004 28.3999C94.9004 25.4999 96.0004 22.8999 98.1004 20.9999C100.1 19.1999 102.3 18.3999 105.7 18.3999C107.1 18.3999 108.5 18.4999 109.8 18.7999C110.7 18.9999 111.3 19.1999 112.7 19.7999L111.8 22.8999C111.1 22.5999 110.6 22.4999 110.2 22.2999C108.8 21.7999 107.4 21.5999 106.2 21.5999C101.8 21.5999 98.8004 24.2999 98.8004 28.0999C98.8004 32.0999 102.1 35.0999 106.4 35.0999C107.3 35.0999 107.8 34.9999 108.9 34.6999V29.2999H112.6V37.1999C111.8 37.6999 111.2 37.8999 110.7 37.8999Z" fill="white"/>
<path d="M117.1 38.1998V18.7998H120.8V38.1998H117.1Z" fill="white"/>
<path d="M133.6 21.8998V38.1998H129.9V21.8998H124V18.7998H139.3V21.8998H133.6Z" fill="white"/>
<path d="M151.7 38.1998L150.2 33.3998H143.7L142.1 38.1998H138.2L145.2 18.7998H148.5L155.5 38.1998H151.7ZM146.9 23.1998L144.7 30.1998H149.2L146.9 23.1998Z" fill="white"/>
<path d="M158.3 38.1998V18.7998H162V35.0998H169.9V38.1998H158.3Z" fill="white"/>
<path d="M195.9 38.1998V29.8998H185.9V38.1998H182.2V18.7998H185.9V26.5998H195.9V18.7998H199.6V38.1998H195.9Z" fill="white"/>
<path d="M215.8 38.1998L214.3 33.3998H207.8L206.2 38.1998H202.3L209.3 18.7998H212.6L219.6 38.1998H215.8ZM211.1 23.1998L208.9 30.1998H213.4L211.1 23.1998Z" fill="white"/>
<path d="M232.1 38.1998L227.7 30.3998H225.8V38.1998H222.1V18.7998H228.6C231.4 18.7998 232.7 19.1998 233.9 20.1998C235 21.1998 235.5 22.5998 235.5 24.3998C235.5 25.8998 235.1 27.0998 234.4 27.9998C233.7 28.8998 233 29.3998 231.4 29.7998L236.2 38.0998H232.1V38.1998ZM228.2 21.8998H225.8V27.2998H228.2C230.6 27.2998 231.6 26.4998 231.6 24.4998C231.6 22.6998 230.7 21.8998 228.2 21.8998Z" fill="white"/>
<path d="M247.8 38.1998H239.9V18.7998H246.9C249.4 18.7998 250.7 19.0998 251.8 20.0998C252.7 20.8998 253.3 22.2998 253.3 23.5998C253.3 24.6998 252.9 25.7998 252.2 26.6998C251.3 27.6998 250.6 27.9998 249 28.0998C251.9 28.1998 253.8 30.0998 253.8 33.0998C253.8 36.3998 251.6 38.1998 247.8 38.1998ZM246.1 21.6998H243.7V26.6998H245.9C248 26.6998 249.1 25.7998 249.1 24.1998C249.1 22.6998 248 21.6998 246.1 21.6998ZM246.1 29.8998H243.7V35.2998H246.1C247.2 35.2998 247.8 35.1998 248.3 34.8998C249.1 34.4998 249.6 33.5998 249.6 32.5998C249.7 30.8998 248.4 29.8998 246.1 29.8998Z" fill="white"/>
<path d="M266.2 38.5999C260.1 38.5999 255.9 34.3999 255.9 28.4999C255.9 22.4999 260.1 18.3999 266.2 18.3999C272.3 18.3999 276.5 22.4999 276.5 28.4999C276.5 34.3999 272.2 38.5999 266.2 38.5999ZM266.2 21.6999C262.5 21.6999 259.8 24.5999 259.8 28.4999C259.8 32.3999 262.5 35.2999 266.2 35.2999C269.8 35.2999 272.5 32.3999 272.5 28.4999C272.6 24.5999 269.9 21.6999 266.2 21.6999Z" fill="white"/>
<path d="M289.3 38.1998L284.9 30.3998H283V38.1998H279.3V18.7998H285.8C288.6 18.7998 289.9 19.1998 291.1 20.1998C292.2 21.1998 292.7 22.5998 292.7 24.3998C292.7 25.8998 292.3 27.0998 291.6 27.9998C290.9 28.8998 290.2 29.3998 288.6 29.7998L293.4 38.0998H289.3V38.1998ZM285.4 21.8998H283V27.2998H285.4C287.8 27.2998 288.8 26.4998 288.8 24.4998C288.8 22.6998 287.9 21.8998 285.4 21.8998Z" fill="white"/>
<path d="M13.7002 18.3999V65.4999H60.7002V18.3999H13.7002ZM38.3002 56.1999L23.9002 43.0999V40.4999L36.4002 50.1999V34.2999C36.4002 33.9999 36.4002 33.7999 36.4002 33.4999H34.8002C34.9002 34.9999 34.6002 36.2999 33.8002 37.2999C33.1002 38.1999 32.1002 38.6999 30.9002 38.6999C30.6002 38.6999 30.2002 38.6999 29.9002 38.5999C28.4002 38.1999 27.4002 37.1999 27.1002 35.9999C26.8002 34.4999 27.3002 33.4999 27.8002 32.9999C29.0002 31.5999 31.3002 31.5999 31.6002 31.5999H31.7002C31.9002 32.2999 32.0002 32.8999 32.1002 33.4999H31.8002H31.5002H31.4002H31.3002C31.2002 33.4999 31.0002 33.4999 30.9002 33.4999C29.5002 33.4999 28.8002 34.1999 28.9002 35.0999C28.9002 35.2999 28.9002 35.4999 29.0002 35.5999C29.0002 35.6999 29.1002 35.7999 29.2002 35.9999C29.5002 36.3999 30.0002 36.6999 30.7002 36.7999C30.7002 36.7999 30.7002 36.7999 30.8002 36.7999C31.3002 36.7999 31.9002 36.6999 32.3002 36.1999C32.4002 35.9999 32.5002 35.7999 32.6002 35.5999C32.7002 35.3999 32.8002 35.0999 32.8002 34.8999C33.0002 34.1999 32.9002 33.0999 32.6002 31.6999C32.4002 30.8999 32.2002 30.0999 31.9002 29.1999L33.7002 28.4999C34.1002 29.5999 34.4002 30.6999 34.6002 31.6999H36.4002C36.4002 30.0999 36.5002 28.6999 36.6002 27.2999L38.7002 26.4999C38.4002 28.2999 38.3002 30.5999 38.4002 33.3999C38.4002 33.4999 38.4002 33.6999 38.4002 33.7999H45.2002V35.6999H38.4002V56.1999H38.3002ZM50.7002 43.0999L41.0002 52.3999L40.2002 48.5999L50.7002 40.3999V43.0999Z" fill="white"/>
<path d="M69.6003 48.2999V53.3999H76.6003V56.5999H69.6003V64.9999H65.8003V45.0999H78.1003V48.2999H69.6003V48.2999Z" fill="white"/>
<path d="M95.0004 65.3998C88.8004 65.3998 84.5004 61.0998 84.4004 55.0998C84.4004 48.9998 88.7004 44.7998 95.0004 44.7998C101.3 44.7998 105.5 48.9998 105.5 55.0998C105.6 61.0998 101.2 65.3998 95.0004 65.3998ZM95.0004 47.9998C91.2004 47.9998 88.5004 50.9998 88.5004 54.9998C88.5004 58.9998 91.3004 61.9998 95.0004 61.9998C98.7004 61.9998 101.5 58.9998 101.5 54.9998C101.6 50.9998 98.8004 47.9998 95.0004 47.9998Z" fill="white"/>
<path d="M127.4 63.8999C126 64.8999 124.3 65.2999 121.8 65.2999C119.3 65.2999 117.7 64.8999 116.2 63.8999C114.2 62.4999 113.5 60.7999 113.5 57.1999V45.0999H117.3V57.3999C117.3 60.3999 118.8 61.7999 122 61.7999C124.9 61.7999 126.4 60.1999 126.4 57.3999V45.0999H130.2V57.1999C130.2 60.8999 129.5 62.4999 127.4 63.8999Z" fill="white"/>
<path d="M153.1 65.1999L144.6 52.2999C144.5 52.1999 144.4 51.8999 144.2 51.4999C144 51.2999 144 51.0999 144 51.0999C143.9 50.8999 143.8 50.6999 143.7 50.3999V64.9999H140V45.0999H144.4L152.7 58.1999C152.7 58.2999 152.8 58.3999 152.9 58.5999C153 58.7999 153.1 58.8999 153.1 58.9999L153.3 59.4999L153.5 59.8999V45.0999H157.1V65.1999H153.1Z" fill="white"/>
<path d="M182.6 62.0999C180.8 64.0999 178.1 64.9999 174.6 64.9999H167.2V45.0999H174.6C178.4 45.0999 180.7 45.8999 182.7 47.9999C184.4 49.7999 185.4 52.3999 185.4 54.9999C185.4 57.5999 184.4 60.1999 182.6 62.0999ZM179 49.5999C177.9 48.7999 176.4 48.3999 174.2 48.3999H171.2V61.5999H174.2C178.7 61.5999 181.3 59.1999 181.3 54.9999C181.3 52.7999 180.4 50.6999 179 49.5999Z" fill="white"/>
<path d="M204.7 64.9999L203.1 60.0999H196.4L194.8 64.9999H190.8L198 45.0999H201.4L208.6 64.9999H204.7ZM199.8 49.5999L197.5 56.7999H202.1L199.8 49.5999Z" fill="white"/>
<path d="M221.4 48.2999V64.9999H217.6V48.2999H211.6V45.0999H227.3V48.2999H221.4Z" fill="white"/>
<path d="M235 64.9999V45.0999H238.8V64.9999H235Z" fill="white"/>
<path d="M257.6 65.3998C251.4 65.3998 247.1 61.0998 247 55.0998C247 48.9998 251.3 44.7998 257.6 44.7998C263.9 44.7998 268.1 48.9998 268.1 55.0998C268.2 61.0998 263.8 65.3998 257.6 65.3998ZM257.6 47.9998C253.8 47.9998 251.1 50.9998 251.1 54.9998C251.1 58.9998 253.9 61.9998 257.6 61.9998C261.3 61.9998 264.1 58.9998 264.1 54.9998C264.2 50.9998 261.4 47.9998 257.6 47.9998Z" fill="white"/>
<path d="M289.8 65.1999L281.3 52.2999C281.2 52.1999 281.1 51.8999 280.9 51.4999C280.7 51.2999 280.7 51.0999 280.7 51.0999C280.6 50.8999 280.5 50.6999 280.4 50.3999V64.9999H276.8V45.0999H281.2L289.5 58.1999C289.5 58.2999 289.6 58.3999 289.7 58.5999C289.8 58.7999 289.9 58.8999 289.9 58.9999L290.1 59.4999L290.3 59.8999V45.0999H293.9V65.1999H289.8Z" fill="white"/>
</svg>
